<mxfile host="app.diagrams.net" modified="2023-05-02T16:31:32.667Z" agent="Mozilla/5.0 (Windows NT 10.0; Win64; x64) AppleWebKit/537.36 (KHTML, like Gecko) Chrome/112.0.0.0 Safari/537.36" version="21.2.4" etag="5-rCKhmOOzEP5GQ_GDZS" type="github">
  <diagram name="Page-1" id="XFpGBrwfxNTf08dObr6f">
    <mxGraphModel>
      <root>
        <mxCell id="0" />
        <mxCell id="1" parent="0" />
      </root>
    </mxGraphModel>
  </diagram>
</mxfile>
